<svg width="653" height="165" viewBox="0 0 653 165" fill="none" xmlns="http://www.w3.org/2000/svg">
<path d="M153.962 125.617H125.592V40.1631H153.962V125.617Z" fill="white"/>
<path d="M268.422 37.7704C278.335 37.7704 286.139 40.9607 291.836 47.3412C297.647 53.6078 300.553 62.2671 300.553 73.3191V125.617H272.011V76.5663C272.011 68.5907 268.479 64.6028 261.415 64.6028C257.655 64.6028 254.749 65.8562 252.699 68.3628C250.648 70.8694 249.622 74.4015 249.622 78.959V125.617H221.252V76.5663C221.252 68.5907 217.663 64.6028 210.485 64.6028C206.725 64.6028 203.819 65.8562 201.768 68.3628C199.717 70.8694 198.692 74.4015 198.692 78.959V125.617H170.321V40.1631H198.692V48.1958C203.933 41.2456 211.624 37.7704 221.764 37.7704C231.563 37.7704 238.855 41.4165 243.64 48.7085C249.565 41.4165 257.826 37.7704 268.422 37.7704Z" fill="white"/>
<path d="M364.055 3.41813V29.7378C354.256 29.0542 349.357 32.5293 349.357 40.1631H364.055V67.3374H349.357V125.617H320.987V67.3374H310.219V40.1631H320.987C320.987 27.7439 324.633 18.344 331.925 11.9635C339.217 5.46901 349.927 2.62056 364.055 3.41813Z" fill="white"/>
<path d="M412.133 128.009C399.372 128.009 388.605 123.68 379.832 115.02C370.945 106.361 366.501 95.651 366.501 82.8899C366.501 70.3567 370.945 59.7035 379.832 50.9303C388.833 42.1571 399.6 37.7704 412.133 37.7704C424.894 37.7704 435.662 42.1571 444.435 50.9303C453.322 59.7035 457.766 70.3567 457.766 82.8899C457.766 95.651 453.322 106.361 444.435 115.02C435.776 123.68 425.008 128.009 412.133 128.009ZM412.133 100.664C417.147 100.664 421.248 99.0121 424.439 95.7079C427.743 92.4037 429.395 88.131 429.395 82.8899C429.395 77.6487 427.743 73.3761 424.439 70.0719C421.248 66.7677 417.147 65.1156 412.133 65.1156C407.234 65.1156 403.132 66.8246 399.828 70.2428C396.638 73.547 395.043 77.7627 395.043 82.8899C395.043 88.0171 396.638 92.2898 399.828 95.7079C403.132 99.0121 407.234 100.664 412.133 100.664Z" fill="white"/>
<path d="M554.5 93.3152H495.537C498.386 100.265 504.766 103.741 514.679 103.741C520.718 103.741 525.902 101.747 530.232 97.7588L550.74 112.115C542.423 122.711 530.175 128.009 513.995 128.009C499.525 128.009 487.904 123.794 479.13 115.362C470.471 106.817 466.141 96.0497 466.141 83.0608C466.141 70.1858 470.414 59.4187 478.959 50.7594C487.505 42.1001 498.386 37.7704 511.603 37.7704C524.364 37.7704 534.903 42.0431 543.22 50.5885C551.538 59.0199 555.697 69.7301 555.697 82.719C555.697 86.7068 555.298 90.2389 554.5 93.3152ZM495.196 73.6609H528.01C525.845 65.6853 520.49 61.6974 511.944 61.6974C503.171 61.6974 497.588 65.6853 495.196 73.6609Z" fill="white"/>
<path d="M651.804 93.3152H592.841C595.689 100.265 602.07 103.741 611.982 103.741C618.021 103.741 623.205 101.747 627.535 97.7588L648.044 112.115C639.726 122.711 627.478 128.009 611.299 128.009C596.829 128.009 585.207 123.794 576.434 115.362C567.775 106.817 563.445 96.0497 563.445 83.0608C563.445 70.1858 567.718 59.4187 576.263 50.7594C584.808 42.1001 595.689 37.7704 608.906 37.7704C621.667 37.7704 632.206 42.0431 640.524 50.5885C648.841 59.0199 653 69.7301 653 82.719C653 86.7068 652.601 90.2389 651.804 93.3152ZM592.499 73.6609H625.313C623.148 65.6853 617.793 61.6974 609.248 61.6974C600.475 61.6974 594.892 65.6853 592.499 73.6609Z" fill="white"/>
<path d="M123.053 164.687V149.535H124.203V164.687H123.053Z" fill="white"/>
<path d="M140.247 149.535H141.701V164.687H140.551V151.224L134.932 160.531H134.737L129.118 151.224V164.687H127.968V149.535H129.4L134.824 158.496L140.247 149.535Z" fill="white"/>
<path d="M145.468 149.535H150.631C151.991 149.535 153.119 149.982 154.016 150.877C154.912 151.772 155.361 152.89 155.361 154.232C155.361 155.574 154.912 156.693 154.016 157.587C153.133 158.468 152.005 158.908 150.631 158.908H146.618V164.687H145.468V149.535ZM146.618 157.825H150.631C151.658 157.825 152.512 157.486 153.191 156.808C153.871 156.13 154.211 155.271 154.211 154.232C154.211 153.179 153.871 152.313 153.191 151.635C152.512 150.957 151.658 150.617 150.631 150.617H146.618V157.825Z" fill="white"/>
<path d="M157.984 159.622V149.535H159.134V159.622C159.134 160.906 159.517 161.931 160.284 162.696C161.065 163.446 162.149 163.821 163.538 163.821C164.926 163.821 166.011 163.446 166.792 162.696C167.573 161.931 167.964 160.906 167.964 159.622V149.535H169.113V159.622C169.113 161.209 168.6 162.494 167.573 163.475C166.561 164.442 165.216 164.925 163.538 164.925C161.86 164.925 160.515 164.442 159.503 163.475C158.49 162.508 157.984 161.224 157.984 159.622Z" fill="white"/>
<path d="M173.821 149.535V163.605H180.98V164.687H172.671V149.535H173.821Z" fill="white"/>
<path d="M187.589 164.925C186.201 164.925 185.015 164.608 184.031 163.973C183.048 163.323 182.383 162.45 182.035 161.354L183.033 160.769C183.308 161.722 183.836 162.472 184.617 163.02C185.398 163.554 186.389 163.821 187.589 163.821C188.79 163.821 189.723 163.547 190.388 162.999C191.068 162.45 191.408 161.714 191.408 160.791C191.408 159.968 191.089 159.326 190.453 158.864C189.846 158.432 188.855 157.991 187.481 157.544L186.396 157.198L185.442 156.83C184.993 156.642 184.682 156.491 184.509 156.375C183.814 155.942 183.366 155.553 183.164 155.206C182.831 154.629 182.665 154.016 182.665 153.366C182.665 152.14 183.098 151.159 183.966 150.423C184.849 149.672 185.948 149.297 187.264 149.297C188.421 149.297 189.419 149.586 190.258 150.163C191.111 150.74 191.74 151.512 192.145 152.479L191.169 153.02C190.46 151.274 189.159 150.401 187.264 150.401C186.237 150.401 185.405 150.675 184.769 151.224C184.147 151.757 183.836 152.457 183.836 153.323C183.836 154.146 184.125 154.759 184.704 155.163C185.282 155.567 186.23 155.986 187.546 156.418C188.399 156.707 189.05 156.945 189.498 157.133C189.99 157.335 190.496 157.602 191.017 157.934C192.058 158.569 192.579 159.514 192.579 160.769C192.579 162.025 192.124 163.035 191.212 163.8C190.316 164.55 189.108 164.925 187.589 164.925Z" fill="white"/>
<path d="M207.816 162.652C206.298 164.168 204.446 164.925 202.262 164.925C200.078 164.925 198.227 164.168 196.708 162.652C195.19 161.123 194.43 159.276 194.43 157.111C194.43 154.947 195.19 153.107 196.708 151.591C198.227 150.062 200.078 149.297 202.262 149.297C204.446 149.297 206.298 150.062 207.816 151.591C209.335 153.107 210.094 154.947 210.094 157.111C210.094 159.276 209.335 161.123 207.816 162.652ZM197.511 161.873C198.813 163.172 200.397 163.821 202.262 163.821C204.143 163.821 205.719 163.172 206.992 161.873C208.293 160.546 208.944 158.958 208.944 157.111C208.944 155.25 208.293 153.669 206.992 152.371C205.719 151.058 204.143 150.401 202.262 150.401C200.397 150.401 198.813 151.058 197.511 152.371C196.224 153.684 195.58 155.264 195.58 157.111C195.58 158.958 196.224 160.546 197.511 161.873Z" fill="white"/>
<path d="M228.448 162.09L230.531 164.276L229.511 164.86L227.754 163.02C226.655 164.29 225.143 164.925 223.22 164.925C221.716 164.925 220.515 164.543 219.618 163.778C218.722 162.999 218.273 161.96 218.273 160.661C218.273 159.694 218.534 158.821 219.054 158.042C219.589 157.263 220.334 156.664 221.289 156.245C220.479 155.307 220.074 154.319 220.074 153.28C220.074 152.068 220.493 151.108 221.332 150.401C222.171 149.665 223.184 149.297 224.37 149.297C225.353 149.297 226.228 149.55 226.995 150.055C227.761 150.56 228.296 151.26 228.6 152.154L227.645 152.717C227.414 152.01 227.002 151.447 226.409 151.029C225.83 150.61 225.158 150.401 224.391 150.401C223.48 150.401 222.728 150.668 222.135 151.202C221.542 151.736 221.245 152.414 221.245 153.237C221.245 153.77 221.368 154.268 221.614 154.73C221.875 155.177 222.301 155.697 222.894 156.289L227.645 161.245C228.094 160.409 228.398 159.406 228.557 158.237L229.576 158.821C229.388 160.033 229.012 161.123 228.448 162.09ZM223.176 163.821C224.753 163.821 226.018 163.28 226.973 162.198L222.092 157.089C221.224 157.407 220.566 157.883 220.117 158.518C219.669 159.153 219.445 159.86 219.445 160.639C219.445 161.635 219.777 162.414 220.443 162.977C221.123 163.54 222.034 163.821 223.176 163.821Z" fill="white"/>
<path d="M247.211 149.535V150.617H239.944V156.678H246.951V157.761H239.944V164.687H238.794V149.535H247.211Z" fill="white"/>
<path d="M262.541 162.652C261.022 164.168 259.171 164.925 256.987 164.925C254.803 164.925 252.951 164.168 251.433 162.652C249.914 161.123 249.155 159.276 249.155 157.111C249.155 154.947 249.914 153.107 251.433 151.591C252.951 150.062 254.803 149.297 256.987 149.297C259.171 149.297 261.022 150.062 262.541 151.591C264.059 153.107 264.819 154.947 264.819 157.111C264.819 159.276 264.059 161.123 262.541 162.652ZM252.236 161.873C253.537 163.172 255.121 163.821 256.987 163.821C258.867 163.821 260.443 163.172 261.716 161.873C263.018 160.546 263.669 158.958 263.669 157.111C263.669 155.25 263.018 153.669 261.716 152.371C260.443 151.058 258.867 150.401 256.987 150.401C255.121 150.401 253.537 151.058 252.236 152.371C250.948 153.684 250.305 155.264 250.305 157.111C250.305 158.958 250.948 160.546 252.236 161.873Z" fill="white"/>
<path d="M278.647 164.687H277.324L273.679 158.475H268.884V164.687H267.734V149.535H273.722C274.952 149.535 276.007 149.975 276.89 150.856C277.772 151.736 278.213 152.789 278.213 154.016C278.213 155.026 277.895 155.935 277.259 156.743C276.637 157.537 275.841 158.064 274.872 158.323L278.647 164.687ZM273.722 150.617H268.884V157.393H273.722C274.648 157.393 275.436 157.068 276.087 156.418C276.738 155.755 277.063 154.954 277.063 154.016C277.063 153.078 276.738 152.277 276.087 151.613C275.436 150.949 274.648 150.617 273.722 150.617Z" fill="white"/>
<path d="M293.319 149.535H294.772V164.687H293.623V151.224L288.004 160.531H287.808L282.189 151.224V164.687H281.04V149.535H282.471L287.895 158.496L293.319 149.535Z" fill="white"/>
<path d="M309.973 164.687H308.758L307.282 160.834H299.668L298.192 164.687H296.977L302.878 149.535H304.093L309.973 164.687ZM303.486 150.942L300.101 159.752H306.87L303.486 150.942Z" fill="white"/>
<path d="M318.662 164.925C316.391 164.925 314.504 164.175 312.999 162.674C311.51 161.173 310.765 159.319 310.765 157.111C310.765 154.903 311.51 153.056 312.999 151.57C314.504 150.055 316.391 149.297 318.662 149.297C320.065 149.297 321.337 149.629 322.48 150.293C323.652 150.957 324.548 151.837 325.17 152.934L324.151 153.518C323.659 152.594 322.914 151.844 321.916 151.267C320.947 150.69 319.862 150.401 318.662 150.401C316.709 150.401 315.089 151.05 313.802 152.349C312.544 153.633 311.915 155.221 311.915 157.111C311.915 159.002 312.544 160.596 313.802 161.895C315.089 163.179 316.709 163.821 318.662 163.821C319.833 163.821 320.918 163.533 321.916 162.955C322.928 162.378 323.688 161.606 324.194 160.639L325.214 161.224C324.592 162.349 323.688 163.251 322.502 163.93C321.33 164.593 320.05 164.925 318.662 164.925Z" fill="white"/>
<path d="M327.925 164.687V149.535H329.075V164.687H327.925Z" fill="white"/>
<path d="M338.893 148.02H339.956L341.93 145.271H340.629L338.893 148.02ZM345.358 162.652C343.839 164.168 341.988 164.925 339.804 164.925C337.62 164.925 335.769 164.168 334.25 162.652C332.732 161.123 331.972 159.276 331.972 157.111C331.972 154.947 332.732 153.107 334.25 151.591C335.769 150.062 337.62 149.297 339.804 149.297C341.988 149.297 343.839 150.062 345.358 151.591C346.877 153.107 347.636 154.947 347.636 157.111C347.636 159.276 346.877 161.123 345.358 162.652ZM335.053 161.873C336.355 163.172 337.938 163.821 339.804 163.821C341.684 163.821 343.261 163.172 344.534 161.873C345.835 160.546 346.486 158.958 346.486 157.111C346.486 155.25 345.835 153.669 344.534 152.371C343.261 151.058 341.684 150.401 339.804 150.401C337.938 150.401 336.355 151.058 335.053 152.371C333.766 153.684 333.122 155.264 333.122 157.111C333.122 158.958 333.766 160.546 335.053 161.873Z" fill="white"/>
<path d="M360.532 162.566V149.535H361.681V164.687H360.662L351.702 151.656V164.687H350.552V149.535H351.55L360.532 162.566Z" fill="white"/>
<path d="M371.23 149.535H376.393C377.753 149.535 378.881 149.982 379.778 150.877C380.674 151.772 381.123 152.89 381.123 154.232C381.123 155.574 380.674 156.693 379.778 157.587C378.895 158.468 377.767 158.908 376.393 158.908H372.38V164.687H371.23V149.535ZM372.38 157.825H376.393C377.42 157.825 378.273 157.486 378.953 156.808C379.633 156.13 379.973 155.271 379.973 154.232C379.973 153.179 379.633 152.313 378.953 151.635C378.273 150.957 377.42 150.617 376.393 150.617H372.38V157.825Z" fill="white"/>
<path d="M393.871 164.687H392.656L391.181 160.834H383.566L382.09 164.687H380.875L386.776 149.535H387.991L393.871 164.687ZM387.384 150.942L384 159.752H390.768L387.384 150.942Z" fill="white"/>
<path d="M406.994 164.687H405.671L402.026 158.475H397.231V164.687H396.082V149.535H402.069C403.299 149.535 404.354 149.975 405.237 150.856C406.119 151.736 406.56 152.789 406.56 154.016C406.56 155.026 406.242 155.935 405.606 156.743C404.984 157.537 404.188 158.064 403.219 158.323L406.994 164.687ZM402.069 150.617H397.231V157.393H402.069C402.995 157.393 403.783 157.068 404.434 156.418C405.085 155.755 405.41 154.954 405.41 154.016C405.41 153.078 405.085 152.277 404.434 151.613C403.783 150.949 402.995 150.617 402.069 150.617Z" fill="white"/>
<path d="M420.82 164.687H419.605L418.13 160.834H410.515L409.039 164.687H407.825L413.726 149.535H414.94L420.82 164.687ZM414.333 150.942L410.949 159.752H417.717L414.333 150.942Z" fill="white"/>
<path d="M429.964 157.587V163.605H437.557V164.687H428.814V149.535H437.449V150.617H429.964V156.505H436.907V157.587H429.964Z" fill="white"/>
<path d="M441.532 149.535V163.605H448.691V164.687H440.382V149.535H441.532Z" fill="white"/>
<path d="M462.007 145.271H463.309L461.334 148.02H460.271L462.007 145.271ZM458.015 157.587V163.605H465.608V164.687H456.865V149.535H465.5V150.617H458.015V156.505H464.957V157.587H458.015Z" fill="white"/>
<path d="M473.423 156.895L478.478 164.687H477.154L472.772 157.934L468.39 164.687H467.045L472.099 156.895L467.327 149.535H468.65L472.772 155.877L476.872 149.535H478.196L473.423 156.895Z" fill="white"/>
<path d="M480.869 164.687V149.535H482.019V164.687H480.869Z" fill="white"/>
<path d="M484.396 149.535H495.113V150.617H490.341V164.687H489.169V150.617H484.396V149.535Z" fill="white"/>
<path d="M509.15 162.652C507.631 164.168 505.78 164.925 503.596 164.925C501.412 164.925 499.561 164.168 498.042 162.652C496.524 161.123 495.764 159.276 495.764 157.111C495.764 154.947 496.524 153.107 498.042 151.591C499.561 150.062 501.412 149.297 503.596 149.297C505.78 149.297 507.631 150.062 509.15 151.591C510.669 153.107 511.428 154.947 511.428 157.111C511.428 159.276 510.669 161.123 509.15 162.652ZM498.845 161.873C500.147 163.172 501.73 163.821 503.596 163.821C505.476 163.821 507.053 163.172 508.326 161.873C509.627 160.546 510.278 158.958 510.278 157.111C510.278 155.25 509.627 153.669 508.326 152.371C507.053 151.058 505.476 150.401 503.596 150.401C501.73 150.401 500.147 151.058 498.845 152.371C497.558 153.684 496.914 155.264 496.914 157.111C496.914 158.958 497.558 160.546 498.845 161.873Z" fill="white"/>
<path d="M521.278 157.587V163.605H528.871V164.687H520.128V149.535H528.762V150.617H521.278V156.505H528.22V157.587H521.278Z" fill="white"/>
<path d="M543.975 149.535H545.428V164.687H544.279V151.224L538.66 160.531H538.464L532.845 151.224V164.687H531.695V149.535H533.127L538.551 158.496L543.975 149.535Z" fill="white"/>
<path d="M549.195 149.535H554.359C555.718 149.535 556.847 149.982 557.743 150.877C558.64 151.772 559.088 152.89 559.088 154.232C559.088 155.574 558.64 156.693 557.743 157.587C556.861 158.468 555.733 158.908 554.359 158.908H550.345V164.687H549.195V149.535ZM550.345 157.825H554.359C555.386 157.825 556.239 157.486 556.919 156.808C557.599 156.13 557.938 155.271 557.938 154.232C557.938 153.179 557.599 152.313 556.919 151.635C556.239 150.957 555.386 150.617 554.359 150.617H550.345V157.825Z" fill="white"/>
<path d="M572.841 164.687H571.518L567.873 158.475H563.078V164.687H561.928V149.535H567.916C569.146 149.535 570.201 149.975 571.084 150.856C571.966 151.736 572.407 152.789 572.407 154.016C572.407 155.026 572.089 155.935 571.453 156.743C570.831 157.537 570.035 158.064 569.066 158.323L572.841 164.687ZM567.916 150.617H563.078V157.393H567.916C568.842 157.393 569.63 157.068 570.281 156.418C570.932 155.755 571.257 154.954 571.257 154.016C571.257 153.078 570.932 152.277 570.281 151.613C569.63 150.949 568.842 150.617 567.916 150.617Z" fill="white"/>
<path d="M576.383 157.587V163.605H583.977V164.687H575.233V149.535H583.868V150.617H576.383V156.505H583.326V157.587H576.383Z" fill="white"/>
<path d="M591.444 164.925C590.055 164.925 588.87 164.608 587.886 163.973C586.903 163.323 586.237 162.45 585.89 161.354L586.888 160.769C587.163 161.722 587.691 162.472 588.472 163.02C589.253 163.554 590.243 163.821 591.444 163.821C592.644 163.821 593.577 163.547 594.243 162.999C594.922 162.45 595.262 161.714 595.262 160.791C595.262 159.968 594.944 159.326 594.308 158.864C593.7 158.432 592.71 157.991 591.336 157.544L590.251 157.198L589.296 156.83C588.848 156.642 588.537 156.491 588.363 156.375C587.669 155.942 587.221 155.553 587.018 155.206C586.686 154.629 586.519 154.016 586.519 153.366C586.519 152.14 586.953 151.159 587.821 150.423C588.703 149.672 589.802 149.297 591.119 149.297C592.276 149.297 593.274 149.586 594.112 150.163C594.966 150.74 595.595 151.512 596 152.479L595.024 153.02C594.315 151.274 593.013 150.401 591.119 150.401C590.092 150.401 589.26 150.675 588.624 151.224C588.002 151.757 587.691 152.457 587.691 153.323C587.691 154.146 587.98 154.759 588.559 155.163C589.137 155.567 590.084 155.986 591.401 156.418C592.254 156.707 592.905 156.945 593.353 157.133C593.845 157.335 594.351 157.602 594.872 157.934C595.913 158.569 596.434 159.514 596.434 160.769C596.434 162.025 595.978 163.035 595.067 163.8C594.17 164.55 592.963 164.925 591.444 164.925Z" fill="white"/>
<path d="M610.48 164.687H609.265L607.79 160.834H600.175L598.7 164.687H597.485L603.386 149.535H604.601L610.48 164.687ZM603.993 150.942L600.609 159.752H607.378L603.993 150.942Z" fill="white"/>
<path d="M623.604 164.687H622.28L618.635 158.475H613.841V164.687H612.691V149.535H618.679C619.908 149.535 620.964 149.975 621.846 150.856C622.729 151.736 623.17 152.789 623.17 154.016C623.17 155.026 622.851 155.935 622.215 156.743C621.593 157.537 620.798 158.064 619.829 158.323L623.604 164.687ZM618.679 150.617H613.841V157.393H618.679C619.604 157.393 620.393 157.068 621.044 156.418C621.694 155.755 622.02 154.954 622.02 154.016C622.02 153.078 621.694 152.277 621.044 151.613C620.393 150.949 619.604 150.617 618.679 150.617Z" fill="white"/>
<path d="M625.996 164.687V149.535H627.146V164.687H625.996Z" fill="white"/>
<path d="M642.344 164.687H641.13L639.654 160.834H632.039L630.564 164.687H629.349L635.25 149.535H636.465L642.344 164.687ZM635.858 150.942L632.473 159.752H639.242L635.858 150.942Z" fill="white"/>
<path d="M645.705 149.535V163.605H652.864V164.687H644.555V149.535H645.705Z" fill="white"/>
<path d="M12.4069 69.6465C18.062 63.9427 24.4817 59.0518 31.4821 55.114C34.1954 53.5312 36.9909 52.0718 39.8275 50.6946L31.071 44.6514C30.3482 44.1645 29.4965 43.9044 28.6249 43.9044C27.7534 43.9044 26.9017 44.1645 26.1789 44.6514L3.7737 59.4922C3.18441 59.8962 2.70244 60.4377 2.36941 61.0698C2.03638 61.702 1.8623 62.4057 1.8623 63.1202C1.8623 63.8347 2.03638 64.5384 2.36941 65.1705C2.70244 65.8027 3.18441 66.3442 3.7737 66.7482L12.448 72.7297C12.448 71.8253 12.3247 70.9414 12.3247 70.037C12.3168 69.9018 12.3452 69.767 12.4069 69.6465Z" fill="#26CC63"/>
<path d="M93.6216 66.4193C94.6699 64.7543 95.6771 63.0483 96.5404 61.2805C97.4201 59.5268 98.1757 57.7135 98.8015 55.8539C99.4319 54.0436 99.8122 52.1556 99.932 50.2424C100.134 48.3233 99.7087 46.3904 98.7193 44.7336C97.5887 43.1419 95.9846 41.9478 94.1355 41.3214C92.3005 40.6391 90.3751 40.2305 88.4211 40.1087C86.4573 39.9647 84.4856 39.9647 82.5218 40.1087C80.4663 40.232 78.5958 40.4581 76.643 40.7665C68.857 42.156 61.2659 44.4747 54.0323 47.673C46.8996 50.8172 40.0735 54.6156 33.6416 59.0194C30.4984 61.1886 27.4661 63.5143 24.5562 65.9876C23.1379 67.221 21.7607 68.4954 20.4452 69.8109C19.7257 70.5303 19.0269 71.2292 18.3896 71.8664C18.5579 73.0769 18.819 74.2726 19.1708 75.443C19.7281 77.3646 20.4149 79.2463 21.2263 81.0751C22.9248 84.8926 24.9466 88.5579 27.2695 92.031C28.4206 93.7988 29.6539 95.5049 30.9489 97.1493C32.2438 98.7937 33.5799 100.397 35.0599 101.877C35.7588 102.617 36.4782 103.336 37.2182 103.932C37.9582 104.529 38.6776 105.289 39.4382 105.988C40.3878 106.735 41.3833 107.421 42.4186 108.044C43.3436 107.694 44.248 107.304 45.173 106.913C46.8997 106.194 48.6058 105.392 50.2913 104.549C53.6807 102.804 56.9805 100.89 60.1783 98.8142C66.7152 94.586 72.8524 89.7698 78.5135 84.4256C84.2397 79.0382 89.3108 72.9943 93.6216 66.4193ZM63.1794 68.1254C62.0911 66.4822 61.5143 64.5534 61.5219 62.5825C61.5294 60.6117 62.1209 58.6873 63.2217 57.0525C64.3225 55.4177 65.8831 54.1459 67.7064 53.3977C69.5297 52.6495 71.5339 52.4585 73.4657 52.8489C75.3975 53.2393 77.1703 54.1935 78.56 55.591C79.9497 56.9885 80.894 58.7665 81.2736 60.7005C81.6533 62.6344 81.4511 64.6375 80.6928 66.4566C79.9344 68.2757 78.6539 69.8292 77.013 70.9209C75.9217 71.6529 74.6962 72.1615 73.4072 72.4172C72.1182 72.673 70.7914 72.6708 69.5032 72.4109C68.2151 72.151 66.9912 71.6384 65.9023 70.9029C64.8133 70.1673 63.8809 69.2233 63.1588 68.1254H63.1794Z" fill="#F2F2F2"/>
<path d="M16.5194 86.4195C6.24177 93.1616 -2.18587 105.659 0.506861 109.708C3.19959 113.758 18.2049 110.839 28.1947 104.056C25.8592 101.47 23.7092 98.7225 21.7609 95.8337C19.7802 92.8315 18.0281 89.6845 16.5194 86.4195Z" fill="#F2F2F2"/>
<path d="M72.759 107.406L70.3951 96.1215C67.949 98.3004 65.4413 100.397 62.8308 102.288C56.5374 107.204 49.6268 111.275 42.2757 114.395C42.2077 114.425 42.1341 114.441 42.0598 114.441C41.9855 114.441 41.912 114.425 41.844 114.395C41.0834 114.087 40.3435 113.737 39.624 113.367L41.844 123.994C41.9886 124.679 42.2952 125.319 42.7381 125.86C43.1809 126.402 43.7472 126.83 44.3893 127.108C45.0315 127.385 45.7308 127.505 46.4288 127.457C47.1268 127.409 47.8031 127.194 48.4011 126.831L70.8884 111.908C71.6073 111.424 72.1679 110.739 72.5005 109.938C72.8331 109.138 72.923 108.257 72.759 107.406Z" fill="#26CC63"/>
<path d="M139.706 33.3269C143.002 33.329 146.225 32.3532 148.967 30.523C151.709 28.6928 153.847 26.0904 155.109 23.0451C156.372 19.9999 156.703 16.6485 156.06 13.4152C155.417 10.1818 153.83 7.21167 151.499 4.88061C149.168 2.54955 146.198 0.962299 142.964 0.319674C139.731 -0.32295 136.38 0.00793412 133.334 1.27046C130.289 2.53299 127.687 4.67043 125.857 7.41234C124.026 10.1542 123.051 13.3774 123.053 16.674C123.053 21.0906 124.807 25.3263 127.93 28.4494C131.053 31.5724 135.289 33.3269 139.706 33.3269ZM146.824 20.0215C146.88 20.4525 146.806 20.8903 146.613 21.2793C146.419 21.6683 146.114 21.9911 145.737 22.2066C145.36 22.4221 144.927 22.5207 144.494 22.4898C144.06 22.4589 143.646 22.2999 143.303 22.033C142.96 21.7661 142.704 21.4034 142.568 20.9908C142.431 20.5783 142.42 20.1345 142.537 19.7158C142.653 19.2971 142.891 18.9224 143.221 18.6392C143.55 18.3561 143.956 18.1772 144.388 18.1253C144.674 18.0807 144.966 18.095 145.246 18.1675C145.526 18.2399 145.788 18.369 146.016 18.5466C146.244 18.7243 146.434 18.9468 146.573 19.2004C146.712 19.4541 146.797 19.7335 146.824 20.0215ZM140.67 4.13143C141.655 4.13143 142.618 4.42371 143.437 4.97127C144.256 5.51883 144.894 6.29705 145.27 7.20744C145.647 8.11784 145.745 9.11947 145.552 10.0856C145.359 11.0517 144.884 11.9388 144.186 12.6347C143.489 13.3306 142.601 13.8039 141.634 13.9949C140.668 14.1858 139.666 14.0857 138.757 13.7072C137.847 13.3287 137.07 12.6889 136.525 11.8687C135.979 11.0486 135.689 10.0849 135.691 9.09974C135.684 8.44196 135.807 7.78933 136.055 7.17972C136.302 6.57012 136.668 6.01567 137.131 5.54855C137.594 5.08144 138.145 4.71095 138.753 4.45859C139.36 4.20623 140.012 4.07703 140.67 4.07847V4.13143ZM131.58 11.3349C132.024 11.2795 132.473 11.3568 132.872 11.5571C133.272 11.7574 133.602 12.0716 133.823 12.4601C134.043 12.8485 134.144 13.2936 134.111 13.7391C134.078 14.1845 133.914 14.6102 133.639 14.9623C133.364 15.3144 132.991 15.577 132.567 15.7168C132.143 15.8567 131.687 15.8675 131.257 15.7479C130.826 15.6283 130.441 15.3837 130.15 15.0451C129.859 14.7064 129.674 14.289 129.621 13.8456C129.578 13.5481 129.594 13.245 129.67 12.954C129.746 12.6631 129.879 12.3902 130.061 12.1514C130.244 11.9126 130.472 11.7126 130.733 11.5633C130.994 11.414 131.282 11.3184 131.58 11.282V11.3349Z" fill="#FFFEF8"/>
</svg>
