<svg width="441" height="385" viewBox="0 0 441 385" fill="none" xmlns="http://www.w3.org/2000/svg">
<path d="M54.6027 130.467C79.49 105.366 107.742 83.8419 138.55 66.5117C150.491 59.5462 162.794 53.1235 175.277 47.0627L136.741 20.4672C133.56 18.3244 129.812 17.1797 125.976 17.1797C122.141 17.1797 118.392 18.3244 115.211 20.4672L16.6091 85.7798C14.0157 87.5579 11.8946 89.9409 10.429 92.7228C8.96333 95.5047 8.19727 98.6018 8.19727 101.746C8.19727 104.891 8.96333 107.988 10.429 110.769C11.8946 113.551 14.0157 115.934 16.6091 117.712L54.7835 144.037C54.7835 140.056 54.2407 136.166 54.2407 132.186C54.2062 131.591 54.3312 130.998 54.6027 130.467Z" fill="#26CC63"/>
<path d="M412.014 116.265C416.627 108.937 421.06 101.429 424.859 93.6496C428.731 85.9316 432.056 77.9515 434.81 69.768C437.584 61.8007 439.258 53.4921 439.785 45.0722C440.675 36.6265 438.802 28.12 434.448 20.8288C429.473 13.824 422.413 8.56875 414.275 5.81229C406.2 2.8095 397.726 1.01118 389.127 0.47511C380.485 -0.15837 371.808 -0.15837 363.165 0.47511C354.119 1.01787 345.887 2.01294 337.293 3.36985C303.028 9.48501 269.62 19.6895 237.787 33.7646C206.396 47.602 176.356 64.3182 148.05 83.6989C134.217 93.2451 120.872 103.48 108.066 114.365C101.824 119.793 95.7633 125.401 89.9738 131.191C86.8077 134.357 83.732 137.433 80.9277 140.237C81.6682 145.564 82.8174 150.826 84.3653 155.977C86.8182 164.434 89.8405 172.715 93.4114 180.763C100.886 197.563 109.784 213.694 120.007 228.979C125.073 236.758 130.5 244.267 136.199 251.503C141.898 258.74 147.778 265.796 154.291 272.309C157.367 275.566 160.533 278.732 163.79 281.355C167.046 283.979 170.212 287.326 173.56 290.401C177.739 293.687 182.12 296.709 186.676 299.448C190.747 297.91 194.727 296.191 198.798 294.472C206.397 291.306 213.905 287.778 221.323 284.069C236.239 276.389 250.761 267.965 264.834 258.831C293.602 240.223 320.611 219.027 345.525 195.508C370.726 171.799 393.043 145.201 412.014 116.265ZM278.042 123.773C273.252 116.542 270.714 108.053 270.747 99.3796C270.78 90.7062 273.383 82.2372 278.228 75.0427C283.072 67.8482 289.94 62.251 297.965 58.9583C305.989 55.6656 314.809 54.8252 323.31 56.5432C331.812 58.2612 339.614 62.4606 345.73 68.6107C351.846 74.7608 356.002 82.5858 357.672 91.0968C359.343 99.6079 358.453 108.423 355.116 116.429C351.778 124.435 346.143 131.271 338.922 136.076C334.119 139.297 328.726 141.535 323.053 142.661C317.38 143.786 311.541 143.777 305.872 142.633C300.203 141.489 294.817 139.233 290.025 135.996C285.232 132.759 281.129 128.605 277.951 123.773H278.042Z" fill="#0F4DB8"/>
<path d="M72.6996 204.283C27.4692 233.954 -9.61972 288.954 2.23063 306.775C14.081 324.596 80.1173 311.75 124.081 281.898C113.803 270.518 104.341 258.427 95.7669 245.714C87.05 232.501 79.3392 218.652 72.6996 204.283Z" fill="#0F4DB8"/>
<path d="M320.207 296.644L309.804 246.981C299.04 256.57 288.003 265.797 276.515 274.119C248.818 295.755 218.406 313.668 186.054 327.4C185.755 327.532 185.431 327.601 185.104 327.601C184.777 327.601 184.454 327.532 184.155 327.4C180.807 326.043 177.551 324.506 174.385 322.877L184.155 369.645C184.791 372.658 186.14 375.474 188.089 377.858C190.038 380.242 192.53 382.124 195.356 383.346C198.182 384.569 201.26 385.096 204.332 384.885C207.404 384.673 210.38 383.728 213.012 382.129L311.975 316.455C315.139 314.323 317.606 311.309 319.07 307.787C320.534 304.264 320.929 300.389 320.207 296.644Z" fill="#26CC63"/>
</svg>
