<svg width="440" height="385" viewBox="0 0 440 385" fill="none" xmlns="http://www.w3.org/2000/svg">
<path d="M54.6044 130.467C79.4916 105.365 107.744 83.8412 138.552 66.5111C150.492 59.5457 162.795 53.123 175.278 47.0622L136.742 20.4668C133.561 18.324 129.813 17.1793 125.978 17.1793C122.142 17.1793 118.394 18.324 115.213 20.4668L16.611 85.7792C14.0176 87.5572 11.8965 89.9402 10.4309 92.7221C8.96528 95.504 8.19922 98.6011 8.19922 101.745C8.19922 104.89 8.96528 107.987 10.4309 110.769C11.8965 113.551 14.0176 115.934 16.611 117.712L54.7853 144.036C54.7853 140.055 54.2425 136.166 54.2425 132.185C54.208 131.59 54.333 130.997 54.6044 130.467Z" fill="#26CC63"/>
<path d="M412.012 116.264C416.626 108.937 421.058 101.429 424.858 93.6492C428.729 85.9313 432.054 77.9512 434.808 69.7677C437.583 61.8005 439.257 53.4919 439.784 45.072C440.674 36.6264 438.801 28.1198 434.447 20.8287C429.471 13.8239 422.412 8.56872 414.274 5.81227C406.198 2.80949 397.725 1.01118 389.126 0.475109C380.484 -0.15837 371.806 -0.15837 363.164 0.475109C354.118 1.01787 345.886 2.01293 337.292 3.36984C303.027 9.48497 269.62 19.6895 237.786 33.7645C206.396 47.6018 176.355 64.318 148.049 83.6986C134.217 93.2448 120.872 103.48 108.066 114.365C101.824 119.792 95.7632 125.401 89.9738 131.19C86.8077 134.356 83.732 137.432 80.9277 140.236C81.6681 145.563 82.8174 150.826 84.3653 155.976C86.8182 164.433 89.8404 172.714 93.4113 180.762C100.886 197.563 109.784 213.693 120.007 228.978C125.072 236.757 130.5 244.266 136.199 251.502C141.898 258.739 147.778 265.795 154.291 272.308C157.367 275.565 160.533 278.731 163.789 281.354C167.046 283.978 170.212 287.325 173.559 290.4C177.739 293.686 182.119 296.707 186.676 299.446C190.747 297.909 194.727 296.19 198.797 294.471C206.396 291.305 213.904 287.777 221.322 284.068C236.239 276.388 250.761 267.964 264.834 258.83C293.601 240.222 320.61 219.026 345.524 195.507C370.724 171.798 393.041 145.2 412.012 116.264ZM278.041 123.772C273.252 116.541 270.713 108.053 270.746 99.3792C270.779 90.7058 273.383 82.2369 278.227 75.0424C283.071 67.8479 289.94 62.2507 297.964 58.9581C305.988 55.6654 314.808 54.825 323.309 56.543C331.811 58.261 339.613 62.4603 345.729 68.6104C351.845 74.7605 356 82.5854 357.671 91.0965C359.342 99.6075 358.452 108.423 355.115 116.428C351.777 124.434 346.142 131.271 338.921 136.075C334.118 139.297 328.724 141.535 323.052 142.66C317.379 143.786 311.54 143.776 305.871 142.632C300.202 141.489 294.816 139.233 290.024 135.996C285.232 132.759 281.128 128.604 277.95 123.772H278.041Z" fill="#F2F2F2"/>
<path d="M72.6993 204.282C27.4691 233.953 -9.61968 288.953 2.23062 306.774C14.0809 324.594 80.1169 311.749 124.081 281.897C113.802 270.517 104.341 258.426 95.7665 245.713C87.0497 232.5 79.3389 218.651 72.6993 204.282Z" fill="#F2F2F2"/>
<path d="M320.205 296.642L309.802 246.979C299.037 256.568 288.001 265.795 276.513 274.118C248.816 295.753 218.404 313.666 186.052 327.399C185.753 327.531 185.429 327.599 185.102 327.599C184.775 327.599 184.452 327.531 184.153 327.399C180.806 326.042 177.549 324.504 174.383 322.876L184.153 369.644C184.789 372.656 186.138 375.472 188.087 377.856C190.036 380.24 192.528 382.122 195.354 383.345C198.18 384.567 201.258 385.094 204.33 384.883C207.402 384.671 210.378 383.726 213.009 382.127L311.973 316.453C315.137 314.322 317.604 311.308 319.067 307.785C320.531 304.263 320.927 300.388 320.205 296.642Z" fill="#26CC63"/>
</svg>
