<svg width="653" height="129" viewBox="0 0 653 129" fill="none" xmlns="http://www.w3.org/2000/svg">
<path d="M153.962 125.617H125.592V40.1631H153.962V125.617Z" fill="#0F4DB8"/>
<path d="M268.422 37.7704C278.335 37.7704 286.139 40.9607 291.836 47.3412C297.647 53.6078 300.553 62.2671 300.553 73.3191V125.617H272.011V76.5663C272.011 68.5906 268.479 64.6028 261.415 64.6028C257.655 64.6028 254.749 65.8561 252.699 68.3628C250.648 70.8694 249.622 74.4015 249.622 78.959V125.617H221.252V76.5663C221.252 68.5906 217.663 64.6028 210.485 64.6028C206.725 64.6028 203.819 65.8561 201.768 68.3628C199.717 70.8694 198.692 74.4015 198.692 78.959V125.617H170.321V40.1631H198.692V48.1957C203.933 41.2455 211.624 37.7704 221.764 37.7704C231.563 37.7704 238.855 41.4164 243.64 48.7084C249.565 41.4164 257.826 37.7704 268.422 37.7704Z" fill="#0F4DB8"/>
<path d="M364.055 3.41808V29.7378C354.256 29.0541 349.357 32.5292 349.357 40.1631H364.055V67.3373H349.357V125.617H320.987V67.3373H310.219V40.1631H320.987C320.987 27.7439 324.633 18.344 331.925 11.9634C339.217 5.46897 349.927 2.62051 364.055 3.41808Z" fill="#0F4DB8"/>
<path d="M412.133 128.009C399.372 128.009 388.605 123.68 379.832 115.02C370.945 106.361 366.501 95.6509 366.501 82.8899C366.501 70.3567 370.945 59.7035 379.832 50.9302C388.833 42.157 399.6 37.7704 412.133 37.7704C424.894 37.7704 435.662 42.157 444.435 50.9302C453.322 59.7035 457.766 70.3567 457.766 82.8899C457.766 95.6509 453.322 106.361 444.435 115.02C435.776 123.68 425.008 128.009 412.133 128.009ZM412.133 100.664C417.147 100.664 421.248 99.0121 424.439 95.7079C427.743 92.4037 429.395 88.131 429.395 82.8899C429.395 77.6487 427.743 73.376 424.439 70.0718C421.248 66.7676 417.147 65.1155 412.133 65.1155C407.234 65.1155 403.132 66.8246 399.828 70.2427C396.638 73.5469 395.043 77.7626 395.043 82.8899C395.043 88.0171 396.638 92.2897 399.828 95.7079C403.132 99.0121 407.234 100.664 412.133 100.664Z" fill="#0F4DB8"/>
<path d="M554.5 93.3152H495.537C498.386 100.265 504.766 103.741 514.679 103.741C520.718 103.741 525.902 101.747 530.232 97.7588L550.74 112.115C542.423 122.711 530.175 128.009 513.995 128.009C499.525 128.009 487.904 123.794 479.13 115.362C470.471 106.817 466.141 96.0497 466.141 83.0608C466.141 70.1858 470.414 59.4186 478.959 50.7593C487.505 42.1 498.386 37.7704 511.603 37.7704C524.364 37.7704 534.903 42.0431 543.22 50.5884C551.538 59.0198 555.697 69.73 555.697 82.7189C555.697 86.7068 555.298 90.2389 554.5 93.3152ZM495.196 73.6609H528.01C525.845 65.6852 520.49 61.6974 511.944 61.6974C503.171 61.6974 497.588 65.6852 495.196 73.6609Z" fill="#0F4DB8"/>
<path d="M651.804 93.3152H592.841C595.689 100.265 602.07 103.741 611.982 103.741C618.021 103.741 623.205 101.747 627.535 97.7588L648.044 112.115C639.726 122.711 627.478 128.009 611.299 128.009C596.829 128.009 585.207 123.794 576.434 115.362C567.775 106.817 563.445 96.0497 563.445 83.0608C563.445 70.1858 567.718 59.4186 576.263 50.7593C584.808 42.1 595.689 37.7704 608.906 37.7704C621.667 37.7704 632.206 42.0431 640.524 50.5884C648.841 59.0198 653 69.73 653 82.7189C653 86.7068 652.601 90.2389 651.804 93.3152ZM592.499 73.6609H625.313C623.148 65.6852 617.793 61.6974 609.248 61.6974C600.475 61.6974 594.892 65.6852 592.499 73.6609Z" fill="#0F4DB8"/>
<path d="M12.4069 69.6465C18.062 63.9428 24.4817 59.0519 31.4821 55.114C34.1954 53.5313 36.9909 52.0719 39.8275 50.6947L31.071 44.6514C30.3482 44.1645 29.4965 43.9044 28.6249 43.9044C27.7534 43.9044 26.9017 44.1645 26.1789 44.6514L3.7737 59.4923C3.18441 59.8963 2.70244 60.4378 2.36941 61.0699C2.03638 61.702 1.8623 62.4058 1.8623 63.1203C1.8623 63.8347 2.03638 64.5385 2.36941 65.1706C2.70244 65.8027 3.18441 66.3442 3.7737 66.7482L12.448 72.7298C12.448 71.8254 12.3247 70.9415 12.3247 70.0371C12.3168 69.9019 12.3452 69.7671 12.4069 69.6465Z" fill="#26CC63"/>
<path d="M93.6216 66.4193C94.6699 64.7543 95.6771 63.0483 96.5404 61.2805C97.4201 59.5268 98.1757 57.7135 98.8015 55.8539C99.4319 54.0436 99.8122 52.1556 99.932 50.2424C100.134 48.3233 99.7087 46.3904 98.7193 44.7336C97.5887 43.1419 95.9846 41.9478 94.1355 41.3214C92.3005 40.6391 90.3751 40.2305 88.4211 40.1087C86.4573 39.9647 84.4856 39.9647 82.5218 40.1087C80.4663 40.232 78.5958 40.4581 76.643 40.7665C68.857 42.156 61.2659 44.4747 54.0323 47.673C46.8996 50.8172 40.0735 54.6156 33.6416 59.0194C30.4984 61.1886 27.4661 63.5143 24.5562 65.9876C23.1379 67.221 21.7607 68.4954 20.4452 69.8109C19.7257 70.5303 19.0269 71.2292 18.3896 71.8664C18.5579 73.0769 18.819 74.2726 19.1708 75.443C19.7281 77.3646 20.4149 79.2463 21.2263 81.0751C22.9248 84.8926 24.9466 88.5579 27.2695 92.031C28.4206 93.7988 29.6539 95.5049 30.9489 97.1493C32.2438 98.7937 33.5799 100.397 35.0599 101.877C35.7588 102.617 36.4782 103.336 37.2182 103.932C37.9582 104.529 38.6776 105.289 39.4382 105.988C40.3878 106.735 41.3833 107.421 42.4186 108.044C43.3436 107.694 44.248 107.304 45.173 106.913C46.8997 106.194 48.6058 105.392 50.2913 104.549C53.6807 102.804 56.9805 100.89 60.1783 98.8142C66.7152 94.586 72.8524 89.7698 78.5135 84.4256C84.2397 79.0382 89.3108 72.9943 93.6216 66.4193ZM63.1794 68.1254C62.0911 66.4822 61.5143 64.5534 61.5219 62.5825C61.5294 60.6117 62.1209 58.6873 63.2217 57.0525C64.3225 55.4177 65.8831 54.1459 67.7064 53.3977C69.5297 52.6495 71.5339 52.4585 73.4657 52.8489C75.3975 53.2393 77.1703 54.1935 78.56 55.591C79.9497 56.9885 80.894 58.7665 81.2736 60.7005C81.6533 62.6344 81.4511 64.6375 80.6928 66.4566C79.9344 68.2757 78.6539 69.8292 77.013 70.9209C75.9217 71.6529 74.6962 72.1615 73.4072 72.4172C72.1182 72.673 70.7914 72.6708 69.5032 72.4109C68.2151 72.151 66.9912 71.6384 65.9023 70.9029C64.8133 70.1673 63.8809 69.2233 63.1588 68.1254H63.1794Z" fill="#0F4DB8"/>
<path d="M16.5194 86.4194C6.24177 93.1615 -2.18587 105.659 0.506861 109.708C3.19959 113.758 18.2049 110.839 28.1947 104.056C25.8592 101.47 23.7092 98.7224 21.7609 95.8337C19.7802 92.8314 18.0281 89.6845 16.5194 86.4194Z" fill="#0F4DB8"/>
<path d="M72.759 107.406L70.3951 96.1216C67.949 98.3004 65.4413 100.397 62.8308 102.288C56.5374 107.204 49.6268 111.275 42.2757 114.395C42.2077 114.425 42.1341 114.441 42.0598 114.441C41.9855 114.441 41.912 114.425 41.844 114.395C41.0834 114.087 40.3435 113.737 39.624 113.367L41.844 123.994C41.9886 124.679 42.2952 125.319 42.7381 125.861C43.1809 126.402 43.7472 126.83 44.3893 127.108C45.0315 127.385 45.7308 127.505 46.4288 127.457C47.1268 127.409 47.8031 127.194 48.4011 126.831L70.8884 111.908C71.6073 111.424 72.1679 110.739 72.5005 109.938C72.8331 109.138 72.923 108.257 72.759 107.406Z" fill="#26CC63"/>
<path d="M139.706 33.3269C143.002 33.329 146.225 32.3532 148.967 30.523C151.709 28.6928 153.847 26.0904 155.109 23.0451C156.372 19.9999 156.703 16.6485 156.06 13.4152C155.417 10.1818 153.83 7.21167 151.499 4.88061C149.168 2.54955 146.198 0.962299 142.964 0.319674C139.731 -0.32295 136.38 0.00793412 133.334 1.27046C130.289 2.53299 127.687 4.67043 125.857 7.41234C124.026 10.1542 123.051 13.3774 123.053 16.674C123.053 21.0906 124.807 25.3263 127.93 28.4494C131.053 31.5724 135.289 33.3269 139.706 33.3269ZM146.824 20.0215C146.88 20.4525 146.806 20.8903 146.613 21.2793C146.419 21.6683 146.114 21.9911 145.737 22.2066C145.36 22.4221 144.927 22.5207 144.494 22.4898C144.06 22.4589 143.646 22.2999 143.303 22.033C142.96 21.7661 142.704 21.4034 142.568 20.9908C142.431 20.5783 142.42 20.1345 142.537 19.7158C142.653 19.2971 142.891 18.9224 143.221 18.6392C143.55 18.3561 143.956 18.1772 144.388 18.1253C144.674 18.0807 144.966 18.095 145.246 18.1675C145.526 18.2399 145.788 18.369 146.016 18.5466C146.244 18.7243 146.434 18.9468 146.573 19.2004C146.712 19.4541 146.797 19.7335 146.824 20.0215ZM140.67 4.13143C141.655 4.13143 142.618 4.42371 143.437 4.97127C144.256 5.51883 144.894 6.29705 145.27 7.20744C145.647 8.11784 145.745 9.11947 145.552 10.0856C145.359 11.0517 144.884 11.9388 144.186 12.6347C143.489 13.3306 142.601 13.8039 141.634 13.9949C140.668 14.1858 139.666 14.0857 138.757 13.7072C137.847 13.3287 137.07 12.6889 136.525 11.8687C135.979 11.0486 135.689 10.0849 135.691 9.09974C135.684 8.44196 135.807 7.78933 136.055 7.17972C136.302 6.57012 136.668 6.01567 137.131 5.54855C137.594 5.08144 138.145 4.71095 138.753 4.45859C139.36 4.20623 140.012 4.07703 140.67 4.07847V4.13143ZM131.58 11.3349C132.024 11.2795 132.473 11.3568 132.872 11.5571C133.272 11.7574 133.602 12.0716 133.823 12.4601C134.043 12.8485 134.144 13.2936 134.111 13.7391C134.078 14.1845 133.914 14.6102 133.639 14.9623C133.364 15.3144 132.991 15.577 132.567 15.7168C132.143 15.8567 131.687 15.8675 131.257 15.7479C130.826 15.6283 130.441 15.3837 130.15 15.0451C129.859 14.7064 129.674 14.289 129.621 13.8456C129.578 13.5481 129.594 13.245 129.67 12.954C129.746 12.6631 129.879 12.3902 130.061 12.1514C130.244 11.9126 130.472 11.7126 130.733 11.5633C130.994 11.414 131.282 11.3184 131.58 11.282V11.3349Z" fill="#0F4DB8"/>
</svg>
